<svg width="40" height="40" viewBox="0 0 40 40" fill="none" xmlns="http://www.w3.org/2000/svg">
<path d="M0 32.2702C0 30.4872 0.7619 28.5866 2.2857 26.5685L3.51878 24.9815L25.2329 0H39.9697V8.46431C39.9697 10.6 38.7567 13.1373 36.3306 16.0763L14.1954 39.9997H0V32.2702ZM0 5.17264C0 2.6451 0.3208 0.920886 0.9624 0H19.3683L3.90975 16.0763H3.0075C1.0025 14.9399 0 11.3053 0 5.17264ZM39.9697 34.7977C39.9697 37.3645 39.6689 39.0985 39.0674 39.9997H20.9322L36.9923 23.0123C38.6564 23.9332 39.6188 26.1277 39.8795 29.5957C39.9597 30.6733 39.9998 31.8097 39.9998 33.0049L39.9697 34.7977Z" fill="white"/>
<path d="M0 5.17264C0 2.6451 0.3208 0.920886 0.9624 0H19.3683L3.90975 16.0763H3.0075C1.0025 14.9399 0 11.3053 0 5.17264ZM39.9697 34.7977C39.9697 37.3645 39.6689 39.0985 39.0674 39.9997H20.9322L36.9923 23.0123C38.6564 23.9332 39.6188 26.1277 39.8795 29.5957C39.9597 30.6733 39.9998 31.8097 39.9998 33.0049L39.9697 34.7977Z" fill="white"/>
</svg>
