<svg width="24" height="24" viewBox="0 0 24 24" fill="none" xmlns="http://www.w3.org/2000/svg">
<path d="M0 19.3622C0 18.2924 0.457143 17.1521 1.37143 15.9412L2.11128 14.989L15.1399 0H23.982V5.07862C23.982 6.36003 23.2541 7.88244 21.7985 9.64585L8.51729 24H0V19.3622ZM0 3.1036C0 1.58707 0.192481 0.552535 0.577444 0H11.6211L2.34587 9.64585H1.80451C0.601504 8.964 0 6.78325 0 3.1036ZM23.982 20.8788C23.982 22.4188 23.8015 23.4592 23.4406 24H12.5594L22.1955 13.8075C23.194 14.36 23.7714 15.6767 23.9278 17.7575C23.9759 18.4041 24 19.086 24 19.8031L23.982 20.8788Z" fill="#63C5EA"/>
<path d="M0 3.1036C0 1.58707 0.192481 0.552535 0.577444 0H11.6211L2.34587 9.64585H1.80451C0.601504 8.964 0 6.78325 0 3.1036ZM23.982 20.8788C23.982 22.4188 23.8015 23.4592 23.4406 24H12.5594L22.1955 13.8075C23.194 14.36 23.7714 15.6767 23.9278 17.7575C23.9759 18.4041 24 19.086 24 19.8031L23.982 20.8788Z" fill="#EA4B8B"/>
</svg>
