<svg width="48" height="40" viewBox="0 0 48 40" fill="none" xmlns="http://www.w3.org/2000/svg">
<path d="M9.68264 40C7.03714 40 4.762 38.9418 2.85724 36.8254C0.95248 34.709 9.91821e-05 31.9577 9.91821e-05 28.5714C9.91821e-05 24.9735 0.793747 21.2698 2.38105 17.4603C3.86253 13.7566 5.92603 10.3704 8.57153 7.30159C11.217 4.2328 14.2329 1.79894 17.6191 0L21.4287 7.14286C18.7832 9.15344 16.6139 11.164 14.9207 13.1746C13.1218 15.1852 11.9578 17.7249 11.4287 20.7936C13.4393 20.8995 15.2911 21.9048 16.9842 23.8095C18.5715 25.8201 19.3652 27.9894 19.3652 30.3175C19.3652 31.9048 18.9419 33.4392 18.0953 34.9206C17.143 36.4021 15.926 37.619 14.4445 38.5714C12.9631 39.5238 11.3758 40 9.68264 40ZM36.0318 40C33.3863 40 31.1112 38.9418 29.2064 36.8254C27.1959 34.709 26.1906 31.9577 26.1906 28.5714C26.1906 24.9735 26.9842 21.2698 28.5715 17.4603C30.1588 13.7566 32.2752 10.3704 34.9207 7.30159C37.5662 4.2328 40.5821 1.79894 43.9683 0L47.6191 7.14286C45.0795 9.15344 42.9631 11.164 41.2699 13.1746C39.471 15.1852 38.3599 17.7249 37.9366 20.7936C39.2064 20.8995 40.4234 21.3757 41.5874 22.2222C42.7514 23.1746 43.7567 24.3915 44.6033 25.873C45.344 27.3545 45.7144 28.836 45.7144 30.3175C45.7144 31.9048 45.2911 33.4392 44.4445 34.9206C43.4922 36.4021 42.2752 37.619 40.7937 38.5714C39.3123 39.5238 37.725 40 36.0318 40Z" fill="#EA4B8B"/>
</svg>
