<svg width="80" height="24" viewBox="0 0 80 24" fill="none" xmlns="http://www.w3.org/2000/svg">
<path d="M72.7193 23.9999C69.6226 23.9999 67.2891 23.4458 65.7188 22.3375C65.7407 22.0147 65.7737 21.6489 65.8176 21.24L65.9658 20.0779C66.0537 19.314 66.1086 18.8405 66.1305 18.6576C66.1525 18.4639 66.169 18.3617 66.18 18.351C66.1909 18.3294 66.2788 18.4155 66.4435 18.6092C66.6082 18.7921 66.9212 19.0181 67.3824 19.2871C67.8436 19.5561 68.3762 19.7928 68.9802 19.9972C70.287 20.4384 71.6486 20.659 73.0652 20.659C74.965 20.659 75.9148 20.0403 75.9148 18.8029C75.9148 18.4048 75.7337 18.1089 75.3713 17.9152C74.7234 17.5924 73.768 17.3503 72.5052 17.1889C71.2533 17.0167 70.2266 16.7692 69.4249 16.4464C68.6233 16.1236 67.9699 15.7363 67.4648 15.2844C66.5314 14.4343 66.0647 13.3207 66.0647 11.9434C66.0647 10.2649 66.7235 8.94679 68.0413 7.98916C69.3481 7.04228 71.1545 6.56885 73.4605 6.56885C75.7446 6.56885 77.6938 7.20368 79.3081 8.47335C79.2312 8.75311 79.1488 9.02211 79.061 9.28035C78.8084 9.9905 78.6217 10.5016 78.5009 10.8136L78.1221 11.7659C78.1001 11.852 78.0836 11.895 78.0727 11.895C78.0507 11.895 77.9629 11.782 77.8091 11.5561C77.1173 10.7706 76.0411 10.2541 74.5806 10.0066C74.1304 9.92056 73.6692 9.87752 73.197 9.87752C71.1984 9.87752 70.1991 10.4693 70.1991 11.6529C70.1991 12.0618 70.4077 12.3738 70.825 12.589C71.6047 12.9979 72.6699 13.2992 74.0206 13.4929C75.3823 13.6865 76.4145 13.9501 77.1173 14.2837C77.8201 14.6065 78.3856 14.9992 78.8139 15.4619C79.6045 16.3012 79.9999 17.4148 79.9999 18.8029C79.9999 20.32 79.3794 21.552 78.1386 22.4989C76.8428 23.4996 75.0363 23.9999 72.7193 23.9999Z" fill="white"/>
<path d="M57.1299 3.09885L59.2769 0L61.2479 3.09885H59.2769V5.85339L57.1299 3.09885ZM61.2479 21.9502C61.2479 22.8756 61.2698 23.4781 61.3137 23.7579H57.1299V6.89172H61.2479V21.9502Z" fill="white"/>
<path d="M45.3287 23.9999C42.232 23.9999 39.8984 23.4458 38.3281 22.3375C38.3501 22.0147 38.383 21.6489 38.427 21.24L38.5752 20.0779C38.6631 19.314 38.718 18.8405 38.7399 18.6576C38.7619 18.4639 38.7784 18.3617 38.7893 18.351C38.8003 18.3294 38.8882 18.4155 39.0529 18.6092C39.2176 18.7921 39.5306 19.0181 39.9918 19.2871C40.453 19.5561 40.9856 19.7928 41.5896 19.9972C42.8963 20.4384 44.258 20.659 45.6746 20.659C47.5743 20.659 48.5242 20.0403 48.5242 18.8029C48.5242 18.4048 48.343 18.1089 47.9807 17.9152C47.3328 17.5924 46.3774 17.3503 45.1145 17.1889C43.8627 17.0167 42.8359 16.7692 42.0343 16.4464C41.2327 16.1236 40.5793 15.7363 40.0741 15.2844C39.1407 14.4343 38.674 13.3207 38.674 11.9434C38.674 10.2649 39.3329 8.94679 40.6507 7.98916C41.9574 7.04228 43.7638 6.56885 46.0699 6.56885C48.354 6.56885 50.3032 7.20368 51.9174 8.47335C51.8406 8.75311 51.7582 9.02211 51.6704 9.28035C51.4178 9.9905 51.2311 10.5016 51.1103 10.8136L50.7315 11.7659C50.7095 11.852 50.693 11.895 50.682 11.895C50.6601 11.895 50.5722 11.782 50.4185 11.5561C49.7267 10.7706 48.6505 10.2541 47.19 10.0066C46.7398 9.92056 46.2786 9.87752 45.8064 9.87752C43.8078 9.87752 42.8085 10.4693 42.8085 11.6529C42.8085 12.0618 43.0171 12.3738 43.4344 12.589C44.2141 12.9979 45.2793 13.2992 46.63 13.4929C47.9916 13.6865 49.0239 13.9501 49.7267 14.2837C50.4295 14.6065 50.995 14.9992 51.4233 15.4619C52.2139 16.3012 52.6093 17.4148 52.6093 18.8029C52.6093 20.32 51.9888 21.552 50.7479 22.4989C49.4521 23.4996 47.6457 23.9999 45.3287 23.9999Z" fill="white"/>
<path d="M25.2585 15.1552L19.4274 6.8916H24.5831L27.6304 12.0402L30.9248 6.8916H35.7181C35.7071 6.8916 35.5863 7.04762 35.3557 7.35966L29.9859 14.8647L36.0805 23.7578H30.9742L27.6798 18.2863L24.4184 23.7578H19.2627L25.2585 15.1552Z" fill="white"/>
<path d="M0.840066 3.74458C0.840066 3.3895 0.823594 2.90531 0.790651 2.29199H16.406L6.81936 19.8845H12.7987C14.358 19.8845 15.2749 19.8414 15.5495 19.7553C15.835 19.6585 16.0601 19.5724 16.2248 19.4971V24.0001C15.7526 23.9571 15.3628 23.9194 15.0553 23.8871C14.7478 23.8549 14.4239 23.828 14.0835 23.8064C13.5673 23.7742 12.568 23.758 11.0856 23.758H0L9.91608 6.16556H4.72743C2.58609 6.16556 1.22441 6.27854 0.642404 6.5045C0.774179 5.9665 0.840066 5.20793 0.840066 4.22878V3.74458Z" fill="white"/>
</svg>
