<svg width="80" height="24" viewBox="0 0 80 24" fill="none" xmlns="http://www.w3.org/2000/svg">
<path d="M72.7193 24.0001C69.6226 24.0001 67.2891 23.446 65.7188 22.3377C65.7407 22.0149 65.7737 21.649 65.8176 21.2402L65.9658 20.0781C66.0537 19.3141 66.1086 18.8407 66.1305 18.6578C66.1525 18.4641 66.169 18.3619 66.18 18.3511C66.1909 18.3296 66.2788 18.4157 66.4435 18.6094C66.6082 18.7923 66.9212 19.0182 67.3824 19.2872C67.8436 19.5562 68.3762 19.793 68.9802 19.9974C70.287 20.4386 71.6486 20.6591 73.0652 20.6591C74.965 20.6591 75.9148 20.0404 75.9148 18.8031C75.9148 18.4049 75.7337 18.109 75.3713 17.9154C74.7234 17.5926 73.768 17.3505 72.5052 17.1891C71.2533 17.0169 70.2266 16.7694 69.4249 16.4466C68.6233 16.1238 67.9699 15.7365 67.4648 15.2846C66.5314 14.4345 66.0647 13.3209 66.0647 11.9436C66.0647 10.2651 66.7235 8.94697 68.0413 7.98934C69.3481 7.04247 71.1545 6.56903 73.4605 6.56903C75.7446 6.56903 77.6938 7.20387 79.3081 8.47354C79.2312 8.75329 79.1488 9.02229 79.061 9.28053C78.8084 9.99068 78.6217 10.5018 78.5009 10.8138L78.1221 11.7661C78.1001 11.8521 78.0836 11.8952 78.0727 11.8952C78.0507 11.8952 77.9629 11.7822 77.8091 11.5563C77.1173 10.7708 76.0411 10.2543 74.5806 10.0068C74.1304 9.92074 73.6692 9.8777 73.197 9.8777C71.1984 9.8777 70.1991 10.4695 70.1991 11.6531C70.1991 12.062 70.4077 12.374 70.825 12.5892C71.6047 12.9981 72.6699 13.2994 74.0206 13.493C75.3823 13.6867 76.4145 13.9503 77.1173 14.2839C77.8201 14.6067 78.3856 14.9994 78.8139 15.4621C79.6045 16.3014 79.9999 17.415 79.9999 18.8031C79.9999 20.3202 79.3794 21.5522 78.1386 22.4991C76.8428 23.4998 75.0363 24.0001 72.7193 24.0001Z" fill="#0C111D"/>
<path d="M57.1299 3.09885L59.2769 0L61.2479 3.09885H59.2769V5.85339L57.1299 3.09885ZM61.2479 21.9502C61.2479 22.8756 61.2698 23.4781 61.3137 23.7579H57.1299V6.89172H61.2479V21.9502Z" fill="#0C111D"/>
<path d="M45.3287 24.0001C42.232 24.0001 39.8984 23.446 38.3281 22.3377C38.3501 22.0149 38.383 21.649 38.427 21.2402L38.5752 20.0781C38.6631 19.3141 38.718 18.8407 38.7399 18.6578C38.7619 18.4641 38.7784 18.3619 38.7893 18.3511C38.8003 18.3296 38.8882 18.4157 39.0529 18.6094C39.2176 18.7923 39.5306 19.0182 39.9918 19.2872C40.453 19.5562 40.9856 19.793 41.5896 19.9974C42.8963 20.4386 44.258 20.6591 45.6746 20.6591C47.5743 20.6591 48.5242 20.0404 48.5242 18.8031C48.5242 18.4049 48.343 18.109 47.9807 17.9154C47.3328 17.5926 46.3774 17.3505 45.1145 17.1891C43.8627 17.0169 42.8359 16.7694 42.0343 16.4466C41.2327 16.1238 40.5793 15.7365 40.0741 15.2846C39.1407 14.4345 38.674 13.3209 38.674 11.9436C38.674 10.2651 39.3329 8.94697 40.6507 7.98934C41.9574 7.04247 43.7638 6.56903 46.0699 6.56903C48.354 6.56903 50.3032 7.20387 51.9174 8.47354C51.8406 8.75329 51.7582 9.02229 51.6704 9.28053C51.4178 9.99068 51.2311 10.5018 51.1103 10.8138L50.7315 11.7661C50.7095 11.8521 50.693 11.8952 50.682 11.8952C50.6601 11.8952 50.5722 11.7822 50.4185 11.5563C49.7267 10.7708 48.6505 10.2543 47.19 10.0068C46.7398 9.92074 46.2786 9.8777 45.8064 9.8777C43.8078 9.8777 42.8085 10.4695 42.8085 11.6531C42.8085 12.062 43.0171 12.374 43.4344 12.5892C44.2141 12.9981 45.2793 13.2994 46.63 13.493C47.9916 13.6867 49.0239 13.9503 49.7267 14.2839C50.4295 14.6067 50.995 14.9994 51.4233 15.4621C52.2139 16.3014 52.6093 17.415 52.6093 18.8031C52.6093 20.3202 51.9888 21.5522 50.7479 22.4991C49.4521 23.4998 47.6457 24.0001 45.3287 24.0001Z" fill="#0C111D"/>
<path d="M25.2585 15.1554L19.4274 6.89178H24.5831L27.6304 12.0404L30.9248 6.89178H35.7181C35.7071 6.89178 35.5863 7.0478 35.3557 7.35984L29.9859 14.8649L36.0805 23.7579H30.9742L27.6798 18.2865L24.4184 23.7579H19.2627L25.2585 15.1554Z" fill="#0C111D"/>
<path d="M0.840066 3.74452C0.840066 3.38944 0.823594 2.90525 0.790651 2.29193H16.406L6.81936 19.8844H12.7987C14.358 19.8844 15.2749 19.8414 15.5495 19.7553C15.835 19.6584 16.0601 19.5724 16.2248 19.497V24.0001C15.7526 23.957 15.3628 23.9194 15.0553 23.8871C14.7478 23.8548 14.4239 23.8279 14.0835 23.8064C13.5673 23.7741 12.568 23.758 11.0856 23.758H0L9.91608 6.1655H4.72743C2.58609 6.1655 1.22441 6.27848 0.642404 6.50444C0.774179 5.96644 0.840066 5.20787 0.840066 4.22872V3.74452Z" fill="#0C111D"/>
</svg>
