<svg width="134" height="40" viewBox="0 0 134 40" fill="none" xmlns="http://www.w3.org/2000/svg">
<path d="M121.532 39.9998C116.371 39.9998 112.481 39.0763 109.864 37.2292C109.901 36.6912 109.956 36.0814 110.029 35.4L110.276 33.4632C110.422 32.19 110.514 31.4009 110.551 31.0961C110.587 30.7733 110.615 30.6029 110.633 30.585C110.651 30.5491 110.798 30.6926 111.072 31.0154C111.347 31.3202 111.868 31.6968 112.637 32.1451C113.406 32.5935 114.293 32.988 115.3 33.3287C117.478 34.064 119.747 34.4316 122.108 34.4316C125.275 34.4316 126.858 33.4005 126.858 31.3381C126.858 30.6746 126.556 30.1815 125.952 29.8587C124.872 29.3207 123.28 28.9172 121.175 28.6482C119.088 28.3613 117.377 27.9488 116.041 27.4108C114.705 26.8728 113.616 26.2272 112.774 25.474C111.219 24.0573 110.441 22.2012 110.441 19.9058C110.441 17.1083 111.539 14.9115 113.735 13.3154C115.913 11.7373 118.924 10.9482 122.767 10.9482C126.574 10.9482 129.823 12.0063 132.513 14.1224C132.385 14.5887 132.248 15.037 132.101 15.4674C131.68 16.651 131.369 17.5028 131.168 18.0228L130.536 19.6099C130.5 19.7534 130.472 19.8251 130.454 19.8251C130.417 19.8251 130.271 19.6368 130.015 19.2602C128.862 17.9511 127.068 17.0903 124.634 16.6779C123.884 16.5344 123.115 16.4627 122.328 16.4627C118.997 16.4627 117.331 17.449 117.331 19.4216C117.331 20.1031 117.679 20.6231 118.375 20.9818C119.674 21.6633 121.449 22.1654 123.701 22.4882C125.97 22.811 127.69 23.2503 128.862 23.8063C130.033 24.3442 130.976 24.9988 131.689 25.7699C133.007 27.1687 133.666 29.0248 133.666 31.3381C133.666 33.8667 132.632 35.92 130.564 37.4982C128.404 39.1659 125.393 39.9998 121.532 39.9998Z" fill="white"/>
<path d="M95.5488 5.16472L99.1272 0L102.412 5.16472H99.1272V9.75559L95.5488 5.16472ZM102.412 36.5835C102.412 38.1257 102.449 39.13 102.522 39.5962H95.5488V11.4861H102.412V36.5835Z" fill="white"/>
<path d="M75.8804 39.9998C70.7192 39.9998 66.8301 39.0763 64.2129 37.2292C64.2495 36.6912 64.3044 36.0814 64.3776 35.4L64.6247 33.4632C64.7711 32.19 64.8626 31.4009 64.8992 31.0961C64.9358 30.7733 64.9633 30.6029 64.9816 30.585C64.9999 30.5491 65.1463 30.6926 65.4208 31.0154C65.6954 31.3202 66.217 31.6968 66.9856 32.1451C67.7543 32.5935 68.642 32.988 69.6486 33.3287C71.8265 34.064 74.096 34.4316 76.4569 34.4316C79.6232 34.4316 81.2063 33.4005 81.2063 31.3381C81.2063 30.6746 80.9043 30.1815 80.3003 29.8587C79.2205 29.3207 77.6282 28.9172 75.5235 28.6482C73.4371 28.3613 71.7259 27.9488 70.3898 27.4108C69.0538 26.8728 67.9648 26.2272 67.1229 25.474C65.5672 24.0573 64.7894 22.2012 64.7894 19.9058C64.7894 17.1083 65.8875 14.9115 68.0838 13.3154C70.2617 11.7373 73.2724 10.9482 77.1158 10.9482C80.9226 10.9482 84.1712 12.0063 86.8616 14.1224C86.7335 14.5887 86.5962 15.037 86.4498 15.4674C86.0289 16.651 85.7177 17.5028 85.5164 18.0228L84.885 19.6099C84.8484 19.7534 84.8209 19.8251 84.8026 19.8251C84.766 19.8251 84.6196 19.6368 84.3634 19.2602C83.2103 17.9511 81.4168 17.0903 78.9826 16.6779C78.2322 16.5344 77.4635 16.4627 76.6765 16.4627C73.3456 16.4627 71.6801 17.449 71.6801 19.4216C71.6801 20.1031 72.0278 20.6231 72.7233 20.9818C74.0228 21.6633 75.798 22.1654 78.0492 22.4882C80.3186 22.811 82.039 23.2503 83.2103 23.8063C84.3817 24.3442 85.3242 24.9988 86.038 25.7699C87.3557 27.1687 88.0146 29.0248 88.0146 31.3381C88.0146 33.8667 86.9806 35.92 84.9124 37.4982C82.7528 39.1659 79.7421 39.9998 75.8804 39.9998Z" fill="white"/>
<path d="M42.4304 25.2589L32.712 11.4863H41.3048L46.3836 20.0673L51.8742 11.4863H59.863C59.8447 11.4863 59.6434 11.7464 59.2591 12.2664L50.3094 24.7747L60.467 39.5964H51.9566L46.466 30.4775L41.0303 39.5964H32.4375L42.4304 25.2589Z" fill="white"/>
<path d="M1.73311 6.24079C1.73311 5.649 1.70566 4.84201 1.65075 3.81982H27.6762L11.6985 33.1404H21.664C24.2628 33.1404 25.7911 33.0687 26.2486 32.9252C26.7245 32.7638 27.0997 32.6203 27.3742 32.4948V39.9998C26.5872 39.9281 25.9375 39.8653 25.425 39.8115C24.9126 39.7577 24.3727 39.7129 23.8053 39.677C22.9451 39.6232 21.2796 39.5963 18.8089 39.5963H0.333008L16.8597 10.2757H8.21201C4.64312 10.2757 2.37368 10.464 1.40367 10.8406C1.6233 9.94397 1.73311 8.67969 1.73311 7.04778V6.24079Z" fill="white"/>
</svg>
