<?xml version="1.0" encoding="UTF-8"?>
<svg version="1.1" xmlns="http://www.w3.org/2000/svg" width="128" height="116">
<path d="M0 0 C2.52197266 -0.34057617 2.52197266 -0.34057617 5.6640625 -0.29296875 C6.78554687 -0.28330078 7.90703125 -0.27363281 9.0625 -0.26367188 C10.238125 -0.23853516 11.41375 -0.21339844 12.625 -0.1875 C13.80835938 -0.17396484 14.99171875 -0.16042969 16.2109375 -0.14648438 C19.14107539 -0.11103916 22.07031459 -0.06162769 25 0 C26.09445881 18.78820961 26.09445881 18.78820961 21.078125 24.82421875 C20.39234375 25.54222656 19.7065625 26.26023437 19 27 C18.14921875 27.95519531 17.2984375 28.91039063 16.421875 29.89453125 C13.89640363 32.70671281 11.31212316 35.45801503 8.70898438 38.19824219 C6.3158145 40.721327 3.94062983 43.26090129 1.57080078 45.8059082 C0.35938409 47.09935297 -0.86101693 48.38444276 -2.09033203 49.66088867 C-4.65299041 52.34150399 -6.86457063 54.78058116 -8.8203125 57.94921875 C-10.60982867 60.81334388 -12.16248483 62.17430986 -15 64 C-17.78173828 64.49072266 -17.78173828 64.49072266 -20.8203125 64.5390625 C-22.45154053 64.56915405 -22.45154053 64.56915405 -24.11572266 64.59985352 C-29.08786234 64.54497418 -34.03952679 64.34123669 -39 64 C-40.09382346 46.35703272 -40.09382346 46.35703272 -35.03125 40.16015625 C-34.02578125 39.09087891 -34.02578125 39.09087891 -33 38 C-32.1646875 37.07058594 -31.329375 36.14117187 -30.46875 35.18359375 C-28.59780727 33.11497154 -26.70241809 31.0721383 -24.79296875 29.0390625 C-22.23366434 26.29040621 -19.85141118 23.42976546 -17.5 20.5 C-13.72673165 15.8055902 -9.74570961 11.36233396 -5.62890625 6.97070312 C-3.52799409 4.72016204 -1.71409779 2.57114669 0 0 Z " fill="#63C4E9" transform="translate(71,0)"/>
<path d="M0 0 C8.25 0 16.5 0 25 0 C24.11440554 4.4279723 23.12239099 7.0498423 21.05859375 10.95703125 C20.47529297 12.06884766 19.89199219 13.18066406 19.29101562 14.32617188 C18.67935547 15.47666016 18.06769531 16.62714844 17.4375 17.8125 C16.81517391 18.99383458 16.19342303 20.17547237 15.57226562 21.35742188 C14.05383318 24.24126645 12.52765887 27.1210323 11 30 C15.62 29.67 20.24 29.34 25 29 C25 31.64 25 34.28 25 37 C16.42 37 7.84 37 -1 37 C0.4323834 32.7028498 1.68455197 29.46410814 3.8203125 25.6015625 C4.35527344 24.62832031 4.89023438 23.65507813 5.44140625 22.65234375 C5.99699219 21.65332031 6.55257813 20.65429688 7.125 19.625 C7.68832031 18.60277344 8.25164063 17.58054687 8.83203125 16.52734375 C10.21691442 14.01577596 11.60786096 11.5075532 13 9 C8.71 8.67 4.42 8.34 0 8 C0 5.36 0 2.72 0 0 Z " fill="#FFFFFF" transform="translate(1,79)"/>
<path d="M0 0 C4.92537868 4.7664955 4.92537868 4.7664955 5.12939453 8.13891602 C5.13052246 9.00186279 5.13165039 9.86480957 5.1328125 10.75390625 C5.13474609 12.15866211 5.13474609 12.15866211 5.13671875 13.59179688 C5.13285156 14.57212891 5.12898438 15.55246094 5.125 16.5625 C5.13080078 18.03879883 5.13080078 18.03879883 5.13671875 19.54492188 C5.13542969 20.48013672 5.13414063 21.41535156 5.1328125 22.37890625 C5.13168457 23.2407251 5.13055664 24.10254395 5.12939453 24.99047852 C5 27 5 27 4 28 C1.78144736 28.08783542 -0.43988496 28.10694609 -2.66015625 28.09765625 C-3.65685585 28.09553383 -3.65685585 28.09553383 -4.6736908 28.09336853 C-6.80333899 28.08775518 -8.93288339 28.07520054 -11.0625 28.0625 C-12.50325369 28.05748671 -13.94400903 28.05292351 -15.38476562 28.04882812 C-18.92321102 28.03778145 -22.46159539 28.02050792 -26 28 C-21.454828 22.60706081 -16.72249865 17.43430052 -11.875 12.3125 C-11.17246094 11.56677734 -10.46992187 10.82105469 -9.74609375 10.05273438 C-6.54009146 6.65582646 -3.31382053 3.29233783 0 0 Z " fill="#E94B8B" transform="translate(91,36)"/>
<path d="M0 0 C1.25159912 0.00523682 2.50319824 0.01047363 3.79272461 0.01586914 C4.78942421 0.01799156 4.78942421 0.01799156 5.80625916 0.02015686 C7.93590735 0.02577021 10.06545175 0.03832485 12.19506836 0.05102539 C13.63582205 0.05603868 15.07657739 0.06060188 16.51733398 0.06469727 C20.05577938 0.07574394 23.59416375 0.09301747 27.13256836 0.11352539 C22.63294777 6.52842023 17.52150838 12.12160784 12.00756836 17.67602539 C11.20963867 18.50682617 10.41170898 19.33762695 9.58959961 20.19360352 C8.81745117 20.9728418 8.04530273 21.75208008 7.24975586 22.55493164 C6.55479004 23.26335205 5.85982422 23.97177246 5.14379883 24.70166016 C3.13256836 26.11352539 3.13256836 26.11352539 0.98364258 25.9909668 C-2.1826827 24.49007349 -2.70854739 22.33622512 -3.86743164 19.11352539 C-4.22505021 15.99562652 -4.19785419 12.93499152 -4.11743164 9.80102539 C-4.10969727 8.56642578 -4.10969727 8.56642578 -4.10180664 7.30688477 C-4.00751847 0.15866293 -4.00751847 0.15866293 0 0 Z " fill="#E94A8A" transform="translate(35.867431640625,-0.113525390625)"/>
<path d="M0 0 C1.70349609 0.00580078 1.70349609 0.00580078 3.44140625 0.01171875 C6.4375 0.3125 6.4375 0.3125 9.4375 2.3125 C9.1075 4.6225 8.7775 6.9325 8.4375 9.3125 C7.4165625 8.8175 7.4165625 8.8175 6.375 8.3125 C2.92909762 7.13942685 0.05352578 7.17069507 -3.5625 7.3125 C-3.5625 7.9725 -3.5625 8.6325 -3.5625 9.3125 C-2.73105469 9.54324219 -1.89960937 9.77398437 -1.04296875 10.01171875 C0.04371094 10.33785156 1.13039063 10.66398437 2.25 11 C3.86841797 11.46986328 3.86841797 11.46986328 5.51953125 11.94921875 C8.98450749 13.56806307 9.93724898 14.83823449 11.4375 18.3125 C11.4375 22.45362939 11.22968982 24.49404974 8.31640625 27.50390625 C4.74379212 29.74830292 2.56366385 29.7860568 -1.625 29.6875 C-2.83285156 29.67460938 -4.04070312 29.66171875 -5.28515625 29.6484375 C-8.29202294 29.3402247 -10.03206255 28.89007946 -12.5625 27.3125 C-12.5625 25.0025 -12.5625 22.6925 -12.5625 20.3125 C-9.5625 20.3125 -9.5625 20.3125 -7.3125 21.3125 C-3.95023075 22.53514336 -1.11269955 22.45172351 2.4375 22.3125 C2.7675 21.3225 3.0975 20.3325 3.4375 19.3125 C2.68984375 19.21453125 1.9421875 19.1165625 1.171875 19.015625 C-6.862662 17.79572148 -6.862662 17.79572148 -10.1875 15.5 C-11.78569031 12.95742451 -12.41584537 11.31891997 -12.5625 8.3125 C-10.73959769 1.35232756 -6.83517485 -0.10108905 0 0 Z " fill="#FFFFFF" transform="translate(73.5625,86.6875)"/>
<path d="M0 0 C1.56041016 -0.00773437 1.56041016 -0.00773437 3.15234375 -0.015625 C5.99348495 0.24370064 7.64957634 0.78480298 10.0625 2.25 C9.7325 4.56 9.4025 6.87 9.0625 9.25 C8.0415625 8.755 8.0415625 8.755 7 8.25 C3.55409762 7.07692685 0.67852578 7.10819507 -2.9375 7.25 C-3.2675 8.24 -3.5975 9.23 -3.9375 10.25 C-2.81601563 10.39695312 -2.81601563 10.39695312 -1.671875 10.546875 C6.23001815 11.74663888 6.23001815 11.74663888 9.75 13.875 C11.67126991 17.35158365 11.86930273 20.44219272 11.0625 24.25 C9.4375 27.25 9.4375 27.25 6.0625 29.25 C-0.02155426 29.93239097 -6.55247753 30.59381694 -11.9375 27.25 C-11.9375 24.61 -11.9375 21.97 -11.9375 19.25 C-11.174375 19.559375 -10.41125 19.86875 -9.625 20.1875 C-5.13545078 21.96243807 -1.7683895 22.34114886 3.0625 22.25 C3.3925 21.26 3.7225 20.27 4.0625 19.25 C2.94101563 19.08564453 2.94101563 19.08564453 1.796875 18.91796875 C0.31960937 18.68013672 0.31960937 18.68013672 -1.1875 18.4375 C-2.16203125 18.28667969 -3.1365625 18.13585937 -4.140625 17.98046875 C-7.12085665 17.20211216 -8.72821122 16.37802758 -10.9375 14.25 C-12.02461382 10.33639025 -12.3517982 8.18217096 -10.6875 4.4375 C-7.43553544 0.3725443 -4.98624083 -0.02465385 0 0 Z " fill="#FFFFFF" transform="translate(116.9375,86.75)"/>
<path d="M0 0 C2.97 0 5.94 0 9 0 C10.32 2.31 11.64 4.62 13 7 C13.66 5.845 14.32 4.69 15 3.5 C17.34271961 0.14457739 17.34271961 0.14457739 20.11328125 -0.46484375 C22.3125 -0.4375 22.3125 -0.4375 26 0 C24.64307571 4.07077286 22.64449637 6.90910857 19.92578125 10.15625 C18.80160011 12.01387457 18.80160011 12.01387457 19.1328125 14.39453125 C20.15713463 17.47211169 21.62092646 19.59481291 23.5625 22.1875 C27 26.80080483 27 26.80080483 27 29 C23.89810712 29.42575 21.08355042 29.61361622 18 29 C15.64667944 26.85622168 14.56886016 24.83406997 13 22 C11.68 24.31 10.36 26.62 9 29 C6.03 29 3.06 29 0 29 C1.37287342 25.30123909 3.06355453 22.0485524 5.125 18.6875 C5.66382813 17.80449219 6.20265625 16.92148438 6.7578125 16.01171875 C7.16773438 15.34785156 7.57765625 14.68398437 8 14 C7.4225 13.15695313 6.845 12.31390625 6.25 11.4453125 C5.49975807 10.33870565 4.74977126 9.23192581 4 8.125 C3.2575 7.03445312 2.515 5.94390625 1.75 4.8203125 C0 2 0 2 0 0 Z " fill="#FFFFFF" transform="translate(31,87)"/>
<path d="M0 0 C2.31 0 4.62 0 7 0 C7.33 9.57 7.66 19.14 8 29 C5.36 29 2.72 29 0 29 C0 19.43 0 9.86 0 0 Z " fill="#FFFFFF" transform="translate(91,87)"/>
<path d="M0 0 C0.66 0 1.32 0 2 0 C4 3 4 3 4 6 C3.01 6 2.02 6 1 6 C0.67 7.32 0.34 8.64 0 10 C-1.625 8.3125 -1.625 8.3125 -3 6 C-2.33228817 3.60736593 -1.77902615 1.77902615 0 0 Z " fill="#FFFFFF" transform="translate(94,76)"/>
</svg>
