<svg width="228" height="126" viewBox="0 0 228 126" fill="none" xmlns="http://www.w3.org/2000/svg">
<path d="M97.7467 105.399C121.387 112.149 190.661 100.473 211.186 86.2416C208.62 85.6943 206.788 85.1469 204.772 84.9645C201.107 84.4171 197.441 84.0522 193.776 83.3224C190.661 82.5926 189.194 80.7681 189.928 78.5787C190.661 75.842 192.676 75.6596 195.059 75.842C204.405 76.7543 213.935 77.8489 223.464 79.1261C227.863 79.6734 229.146 82.7751 226.946 86.7889C226.03 88.431 224.564 89.8906 223.648 91.5326C217.05 101.932 210.636 112.149 204.222 122.367C203.672 123.279 203.306 124.373 202.573 124.738C201.107 125.468 199.091 126.38 197.991 125.833C196.708 125.286 195.609 123.279 195.609 121.819C195.609 120.177 196.525 118.535 197.258 116.893C199.824 112.332 202.756 107.953 205.322 103.392C206.055 102.115 206.604 100.838 207.521 99.013C206.238 99.1955 205.688 99.1955 205.322 99.3779C171.601 113.062 136.232 116.528 100.312 115.069C94.9978 114.886 89.6832 113.974 84.7351 112.514C78.5042 110.507 72.2733 109.96 65.8591 110.325C53.214 110.872 40.9354 109.048 29.2067 103.757C22.6092 100.838 16.5616 96.8236 11.4303 91.5326C0.0679972 79.3085 -2.86419 65.0775 2.81693 49.3869C7.39848 36.9804 16.0118 27.3106 26.641 19.6477C46.7998 5.05178 69.7076 -0.969031 94.6312 0.125667C96.4639 0.125668 98.1132 0.673016 99.7626 1.03791C101.962 1.40281 103.245 2.67995 103.061 5.05179C102.878 7.42362 101.045 8.15342 99.0295 8.15342C97.93 8.15342 96.6471 7.97098 95.5475 7.97098C76.1218 6.87628 57.9788 11.6199 40.9354 20.7424C31.5891 25.851 23.5256 32.6016 17.1114 41.1767C13.0796 46.8326 9.96415 52.8534 9.04784 59.7865C7.58175 71.2808 11.6135 80.9506 20.4101 88.2485C31.4058 97.7359 44.6007 101.02 59.8114 101.75C58.7119 100.108 57.9788 99.013 57.2458 98.1008C56.696 97.371 55.9629 96.6412 55.2299 95.9114C45.1505 84.4171 43.1346 70.3685 50.0985 56.8673C51.7479 53.7657 53.5805 50.664 55.7797 48.1097C74.8389 26.3983 98.8463 18.9179 126.702 24.3914C139.164 26.9457 148.144 34.4261 151.442 47.38C153.642 55.9551 151.626 63.9828 147.227 71.4632C143.196 78.2138 137.698 83.6873 131.284 88.431C122.67 94.8167 112.957 99.5604 102.878 103.392C101.229 103.939 99.7626 104.669 97.7467 105.399ZM111.858 30.2297C98.2965 31.142 84.1853 35.5208 73.7394 42.8187C67.1419 47.38 61.4608 53.0359 57.7956 60.3338C52.6642 70.9159 53.7638 80.7681 61.644 89.5257C64.9428 93.1746 69.3411 96.0938 73.5561 98.8306C75.3887 99.9253 78.1377 100.29 80.1535 100.108C99.2128 97.0061 116.623 90.2555 131.1 77.3016C134.949 73.8351 138.248 69.4563 140.63 65.0775C147.227 52.4885 142.279 39.5347 129.085 34.6085C123.77 32.2367 117.722 31.6893 111.858 30.2297Z" fill="#EA4B8B"/>
</svg>
