<svg width="418" height="20" viewBox="0 0 418 20" fill="none" xmlns="http://www.w3.org/2000/svg">
<g clip-path="url(#clip0_180_1704)">
<path d="M400.501 3.07275C398.939 3.16586 397.533 3.16586 395.97 3.25897C393.939 3.35209 391.908 3.53831 389.721 3.63143C386.283 3.81765 382.846 4.19011 379.565 4.65568C375.971 5.21436 372.534 5.95926 369.253 6.98351C368.628 7.16974 368.003 7.44908 367.222 7.54219C366.441 7.72842 365.816 7.91465 365.035 8.10087C363.941 8.38022 363.004 8.56644 361.91 8.75267C360.66 8.9389 359.41 9.12512 358.16 9.21824C357.066 9.31135 355.973 9.31135 354.879 9.31135C353.785 9.31135 352.848 9.21824 351.754 9.21824C350.348 9.12512 348.942 8.9389 347.536 8.65956C346.13 8.38022 344.724 8.10088 343.317 7.72842C340.974 7.07663 338.63 6.33172 336.287 5.58681C335.193 5.21436 334.255 4.8419 333.162 4.37633C331.912 3.91077 330.662 3.4452 329.412 2.97963C328.475 2.60718 327.381 2.32784 326.287 2.0485C325.662 1.86227 324.881 1.76916 324.1 1.67604C323.319 1.58293 322.694 1.58293 321.913 1.48982C321.444 1.48982 320.975 1.48982 320.663 1.58293C320.038 1.67604 319.413 1.76916 318.788 1.86227C317.85 2.0485 316.913 2.32784 315.975 2.60718C314.101 3.16586 312.382 3.72454 310.507 4.28322C308.163 5.02813 305.976 5.67992 303.476 6.33172C302.07 6.70417 300.508 6.98351 299.102 7.26285C297.07 7.63531 295.196 7.82153 293.164 8.00776C291.29 8.19399 289.258 8.19399 287.384 8.2871C285.196 8.2871 283.009 8.19399 280.821 8.00776C278.009 7.72842 275.353 7.44908 272.541 7.07663C270.041 6.70417 267.541 6.23861 265.197 5.67992C262.854 5.02813 260.51 4.37634 258.167 3.63143C255.511 2.79341 252.855 1.95538 250.042 1.3967C248.949 1.11736 247.855 1.02425 246.605 0.838022C245.355 0.651795 243.949 0.651795 242.543 0.651795C241.137 0.651795 239.887 0.838022 238.48 1.02425C237.074 1.21048 235.824 1.58293 234.575 1.95538C231.606 2.88652 228.95 4.09699 226.294 5.30747C224.731 6.05238 223.169 6.79729 221.607 7.54219C220.357 8.10088 218.951 8.75267 217.544 9.31135C216.138 9.87003 214.576 10.3356 213.013 10.8012C212.232 10.9874 211.607 11.1736 210.826 11.2667C209.889 11.453 208.795 11.5461 207.857 11.6392C207.389 11.6392 207.076 11.6392 206.608 11.6392C206.295 11.6392 205.983 11.6392 205.67 11.6392C204.889 11.5461 204.108 11.3598 203.327 11.1736C200.514 10.3356 197.858 9.31135 195.358 8.19399C194.108 7.63531 193.015 7.07663 191.921 6.42483C191.14 5.95926 190.359 5.58681 189.577 5.12124C187.546 4.00388 185.671 2.70029 183.484 1.67604C182.547 1.30359 181.609 0.931135 180.516 0.558681C179.891 0.372454 179.266 0.279341 178.641 0.186227C178.484 0.186227 178.172 0.0931135 178.016 0.0931135C177.547 0.0931135 177.078 0 176.766 0C176.61 0 176.297 0 176.141 0H175.985C175.672 0 175.203 0 174.891 0.0931135C174.11 0.186227 173.485 0.279341 172.704 0.372454C171.297 0.651795 169.891 0.931135 168.485 1.30359C167.391 1.58293 166.298 1.86227 165.204 2.23472C164.423 2.42095 163.642 2.70029 162.86 2.88652C161.611 3.25897 160.517 3.63143 159.267 4.00388C158.642 4.19011 158.017 4.37633 157.548 4.56256C156.455 4.93502 155.361 5.40058 154.423 5.77304C153.642 6.05238 152.861 6.33172 152.08 6.70417C150.049 7.44908 148.174 8.2871 146.143 9.03201C141.924 10.7081 137.55 12.3841 132.862 13.5946C131.769 13.8739 130.831 14.0601 129.738 14.3395C128.488 14.6188 127.082 14.805 125.675 14.8982C125.05 14.8982 124.582 14.9913 123.957 14.9913C123.019 14.9913 122.238 14.9913 121.301 14.8982C120.051 14.805 118.801 14.6188 117.707 14.3395C116.457 13.967 115.207 13.5015 114.114 13.0359C112.239 12.1979 110.676 11.1736 109.114 10.1494C108.333 9.6838 107.552 9.12512 106.77 8.65956C105.833 8.10088 104.739 7.54219 103.802 6.98351C102.864 6.51795 102.083 6.14549 100.989 5.86615C100.052 6.05238 99.4271 5.86615 98.8021 5.77304C98.1772 5.67992 97.5522 5.58681 96.9272 5.58681C96.4585 5.58681 96.146 5.58681 95.6773 5.67992C95.0524 5.77304 94.5836 5.86615 93.9587 6.05238C93.49 6.23861 92.865 6.42483 92.3963 6.61106C91.9276 6.8904 91.4589 7.16974 91.1464 7.44908C90.3652 8.00776 89.584 8.56644 88.959 9.12512C88.3341 9.59069 87.7091 9.96315 87.2404 10.4287C86.6154 10.8943 85.8342 11.453 85.2093 11.9185C83.8031 12.9428 82.2407 13.7808 80.5221 14.6188C79.2721 15.1775 77.866 15.6431 76.4598 16.1086C75.0537 16.388 73.8038 16.5742 72.3976 16.7604C70.3665 16.8535 68.4916 16.8535 66.4605 16.7604C63.3357 16.4811 60.3671 15.9224 57.3986 15.1775C54.7425 14.4326 52.2427 13.6877 49.7428 12.7566C48.4929 12.291 47.243 11.8254 45.9931 11.2667C44.7432 10.8012 43.4932 10.2425 42.2433 9.77692C40.9934 9.21824 39.7435 8.75267 38.4936 8.2871C37.2437 7.82153 35.8375 7.35597 34.4313 6.98351C31.7753 6.23861 28.9629 5.77304 26.1506 5.86615C25.5257 5.86615 24.7445 5.95926 24.1195 5.95926C23.3383 6.05238 22.7134 6.14549 22.0884 6.23861C21.4634 6.33172 20.8385 6.51795 20.3698 6.61106C19.7448 6.79729 19.1198 6.98351 18.4949 7.07663C15.2138 7.72842 12.5578 8.65956 10.0579 9.6838C7.87058 10.6149 5.68322 11.6392 3.80834 12.8497C2.87091 13.4083 2.08971 13.967 1.30851 14.5257C0.996029 14.805 0.683549 15.0844 0.527309 15.4568C0.527309 15.55 0.371069 15.7362 0.371069 15.8293C0.21483 16.1086 0.21483 16.388 0.0585899 16.6673C-0.0976499 17.0398 0.0585899 17.4122 0.527309 17.6916C0.996029 17.8778 1.62099 17.9709 2.24595 17.8778C2.71467 17.7847 3.02715 17.6916 3.49586 17.6916C4.12082 17.5985 4.58954 17.4122 5.2145 17.226C5.9957 16.9467 6.30818 16.2949 5.83946 15.8293C5.52698 15.55 5.2145 15.4568 4.74578 15.3637C6.30818 14.3395 8.02682 13.4083 9.74546 12.4772C12.714 11.1736 15.8388 10.1494 19.1198 9.21824C19.901 9.03201 20.6822 8.84578 21.4634 8.65956C22.4009 8.56644 23.4946 8.38022 24.432 8.2871C25.3694 8.19399 26.1506 8.19399 27.0881 8.2871C27.713 8.38022 28.1817 8.38022 28.8067 8.47333C29.7441 8.65956 30.5253 8.84578 31.3065 9.03201C32.8689 9.49758 34.4313 9.96315 35.8375 10.5218C37.5561 11.1736 39.1185 11.9185 40.8372 12.6634C42.3996 13.3152 44.1182 14.0601 45.8368 14.7119C47.5555 15.3637 49.2741 16.0155 50.9928 16.5742C54.43 17.6916 58.0235 18.6227 61.6171 19.2745C65.3668 19.9263 69.429 20.2056 73.4913 19.8332C75.3662 19.647 77.0848 19.3676 78.8034 18.9952C80.5221 18.5296 82.0845 18.064 83.4906 17.4122C85.053 16.7604 86.4592 15.9224 87.8653 15.0844C88.6465 14.6188 89.2715 14.1533 89.8965 13.6877C90.8339 12.9428 91.7713 12.291 92.7088 11.5461C93.8025 10.7081 94.8961 9.77692 96.3023 8.9389C96.4585 8.9389 96.4585 8.84578 96.6148 8.84578C96.771 8.84578 96.9272 8.75267 97.0835 8.75267H97.2397C97.5522 8.75267 97.7084 8.84578 98.0209 8.84578C98.6459 9.03201 99.2708 9.21824 99.8958 9.49758C101.614 10.2425 103.021 11.1736 104.427 12.1048C106.302 13.2221 108.177 14.4326 110.208 15.4568C111.145 15.9224 112.083 16.2949 113.02 16.6673C114.114 17.1329 115.364 17.4122 116.613 17.6916C117.707 17.9709 118.957 18.064 120.207 18.2502C121.613 18.3434 123.176 18.4365 124.582 18.3434C125.832 18.3434 127.082 18.1571 128.175 18.064C129.581 17.8778 130.988 17.5985 132.394 17.3191C135.05 16.7604 137.55 16.0155 139.893 15.2706C143.487 14.1533 146.768 12.7566 150.049 11.453C151.611 10.8012 153.174 10.1494 154.892 9.49758C156.767 8.75267 158.642 8.10087 160.517 7.35597C160.673 7.26285 160.986 7.16974 161.142 7.16974C161.767 6.98351 162.392 6.79729 163.017 6.51795C163.954 6.23861 164.892 5.86615 165.985 5.58681C166.141 5.4937 166.454 5.4937 166.61 5.40058C167.235 5.21436 168.016 5.02813 168.641 4.8419C169.735 4.56256 170.985 4.19011 172.079 3.91077C173.172 3.63143 174.422 3.4452 175.672 3.25897C175.985 3.25897 176.141 3.25897 176.453 3.25897C176.61 3.25897 176.922 3.25897 177.078 3.25897C177.547 3.35209 178.016 3.4452 178.641 3.53831C179.422 3.81765 180.203 4.09699 180.984 4.46945C183.328 5.67992 185.359 6.98351 187.546 8.19399C188.952 8.9389 190.359 9.68381 191.765 10.4287C193.171 11.0805 194.577 11.6392 195.983 12.291C197.546 12.9428 199.108 13.4083 200.67 13.967C202.077 14.4326 203.795 14.7119 205.358 14.8982C206.139 14.9913 206.764 14.9913 207.545 14.8982C208.482 14.8982 209.42 14.805 210.357 14.6188C211.92 14.4326 213.482 14.1533 214.888 13.7808C216.607 13.3152 218.169 12.8497 219.732 12.291C221.919 11.453 223.794 10.5218 225.825 9.59069C226.919 9.03201 228.169 8.47333 229.262 7.91465C230.2 7.44908 231.137 7.07663 232.075 6.61106C234.106 5.67992 236.137 4.93502 238.48 4.28322C239.574 4.00388 240.668 3.81765 241.918 3.72454C242.543 3.72454 243.011 3.63143 243.636 3.63143C244.105 3.63143 244.574 3.63143 245.199 3.72454C247.074 3.91077 248.792 4.19011 250.511 4.56256C251.917 4.93502 253.48 5.40058 254.886 5.77304C255.823 6.05238 256.604 6.33172 257.542 6.61106C258.323 6.8904 259.26 7.16974 260.198 7.44908C261.916 7.91465 263.635 8.38022 265.354 8.84578C267.229 9.31135 269.103 9.59069 270.978 9.87003C275.041 10.5218 279.103 10.8943 283.165 11.1736C285.196 11.3598 287.384 11.3598 289.415 11.3598C291.446 11.3598 293.477 11.1736 295.508 10.9874C299.102 10.7081 302.695 10.0563 306.132 9.21824C308.32 8.65956 310.351 8.00776 312.538 7.35597C315.038 6.61106 317.538 5.77304 320.194 5.02813C320.663 4.93502 321.288 4.8419 321.756 4.74879C322.069 4.74879 322.381 4.74879 322.694 4.74879C323.475 4.8419 324.1 4.93502 324.881 5.12124C327.225 5.77304 329.256 6.70417 331.443 7.54219C333.631 8.47333 335.974 9.21824 338.318 9.96315C340.661 10.7081 343.161 11.2667 345.661 11.8254C348.473 12.3841 351.442 12.6634 354.41 12.7566C357.066 12.8497 359.723 12.6634 362.222 12.291C364.41 12.0116 366.597 11.453 368.628 10.8943C369.566 10.6149 370.347 10.4287 371.284 10.1494C371.909 9.96315 372.378 9.77692 373.003 9.59069C373.784 9.31135 374.722 9.12512 375.503 8.84578C379.721 7.82154 384.096 7.26285 388.627 6.8904C390.97 6.70417 393.47 6.61106 395.97 6.42483C398.001 6.33172 400.189 6.23861 402.22 6.14549C406.438 5.95926 410.813 5.77304 415.031 5.86615C416.75 5.86615 418 5.02813 418 4.09699C418 3.16586 416.594 2.32784 415.031 2.32784C411.75 2.32784 408.469 2.51406 405.345 2.60718C403.626 2.88652 402.064 2.97963 400.501 3.07275ZM321.288 4.8419C321.444 4.8419 321.444 4.8419 321.6 4.8419C321.444 4.8419 321.288 4.8419 321.288 4.8419Z" fill="#63C5EA"/>
</g>
<defs>
<clipPath id="clip0_180_1704">
<rect width="418" height="20" fill="white"/>
</clipPath>
</defs>
</svg>
